# xmcd
# 
# Track frame offsets:
#     150
#     13900
#     26722
#     40940
# 
# Disc length: 859
# 
# Revision: 0
# Processed by: cddbd v1.5.2PL0 Copyright (c) Steve Scherf et al.
# Submitted via: fre:ac v1.0.17
# 
DISCID=2c035904
DTITLE=Stagnation - Answer To Time (Demo 1998)
DYEAR=1998
DGENRE=
TTITLE0=Cold Reign Turns To Snow
TTITLE1=Songs Of Praise
TTITLE2=Global Insanity
TTITLE3=No Exit
EXTD=
EXTT0=
EXTT1=
EXTT2=
EXTT3=
PLAYORDER=
